<?xml version="1.0" encoding="UTF-8" standalone="no"?>
<svg
   xmlns:dc="http://purl.org/dc/elements/1.1/"
   xmlns:cc="http://creativecommons.org/ns#"
   xmlns:rdf="http://www.w3.org/1999/02/22-rdf-syntax-ns#"
   xmlns:svg="http://www.w3.org/2000/svg"
   xmlns="http://www.w3.org/2000/svg"
   xmlns:xlink="http://www.w3.org/1999/xlink"
   height="20"
   width="20"
   xml:space="preserve"
   viewBox="0 0 20 20"
   y="0px"
   x="0px"
   id="Layer_1"
   version="1.1"><metadata
     id="metadata9"><rdf:RDF><cc:Work
         rdf:about=""><dc:format>image/svg+xml</dc:format><dc:type
           rdf:resource="http://purl.org/dc/dcmitype/StillImage" /><dc:title></dc:title></cc:Work></rdf:RDF></metadata><defs
     id="defs7"><linearGradient
       id="linearGradient827"><stop
         id="stop823"
         offset="0"
         style="stop-color:#000000;stop-opacity:0.27411169" /><stop
         id="stop825"
         offset="1"
         style="stop-color:#000000;stop-opacity:0;" /></linearGradient><linearGradient
       gradientUnits="userSpaceOnUse"
       y2="15.833984"
       x2="20.878906"
       y1="4.166626"
       x1="9.9471436"
       id="linearGradient829"
       xlink:href="#linearGradient827" /><clipPath
       id="clipPath1502"
       clipPathUnits="userSpaceOnUse"><circle
         r="10"
         cy="10"
         cx="10"
         id="circle1504"
         style="fill:#0000c6;fill-opacity:1;stroke:none;stroke-width:9.23353004;stroke-miterlimit:4;stroke-dasharray:none;stroke-opacity:1" /></clipPath></defs><circle
     style="fill:#f7931a;fill-opacity:1;stroke:none;stroke-width:9.23353004;stroke-miterlimit:4;stroke-dasharray:none;stroke-opacity:1"
     id="path823"
     cx="10"
     cy="10"
     r="10" /><g
     clip-path="url(#clipPath1502)"
     id="g4725"
     style="fill:#000000;stroke:none;fill-opacity:0.45238096;stroke-width:2;stroke-opacity:0.6"><path
       id="path4703"
       d="m 17.545876,15.836874 v 4.9965"
       style="fill:#000000;fill-opacity:0.45238097;stroke:none" /><path
       id="path4705"
       d="M 13.379211,20.833374 7.913208,15"
       style="fill:#000000;fill-opacity:0.45238097;stroke:none" /><path
       id="path4717"
       d="M9.947144 4.166626L15.413147 10.0L15.413208 10.0L9.947205 4.166626L9.947144 4.166626"
       style="stroke:none;fill:#000000;fill-opacity:0.45238096" /><path
       id="path4719"
       d="M9.947205 4.166626L15.413208 10.0L20.87921 15.833374L15.413208 10.0L9.947205 4.166626"
       style="stroke:none;fill:#000000;fill-opacity:0.45238096" /><path
       style="fill:url(#linearGradient829);fill-opacity:0.45238097;stroke:none"
       d="M 9.9472656,4.1660156 4.5859375,9.9921875 7.9140625,13.542969 V 15 l 5.4648435,5.833984 7.5,-5 z"
       id="path4707" /></g><path
     style="fill:#ffffff;fill-opacity:1"
     d="m 12.083374,10 c -0.0013,0.0013 -0.0021,0.0021 -0.0035,0.0035 V 15 H 7.913208 V 10.001709 C 7.912536,10.001038 7.91217,10.000671 7.911499,10 H 4.590149 C 4.587829,9.994812 4.58905,9.99762 4.586792,9.992432 L 9.947144,4.166626 h 6.1e-5 L 15.413208,10 Z"
     id="path2" /></svg>